<svg width="40" height="40" viewBox="0 0 40 40" fill="none" xmlns="http://www.w3.org/2000/svg">
<path d="M8.625 3.125H10.25V36.875H8.625C6.8375 36.875 5.375 35.3563 5.375 33.5V6.5C5.375 4.64375 6.8375 3.125 8.625 3.125Z" fill="#DE850B"/>
<path fill-rule="evenodd" clip-rule="evenodd" d="M31.375 36.875H10.25V3.125H31.375C33.1625 3.125 34.625 4.64375 34.625 6.5V33.5C34.625 35.3563 33.1625 36.875 31.375 36.875ZM21.625 20C23.4199 20 24.875 18.489 24.875 16.625C24.875 14.761 23.4199 13.25 21.625 13.25C19.8301 13.25 18.375 14.761 18.375 16.625C18.375 18.489 19.8301 20 21.625 20ZM21.625 21.6875C25.7687 21.6875 27.3125 25.0625 27.3125 25.0625V26.75H15.9375V25.0625C15.9375 25.0625 17.4812 21.6875 21.625 21.6875Z" fill="#F29D29"/>
</svg>
